<?xml version="1.0" encoding="UTF-8"?>
<svg width="339px" height="40px" viewBox="0 0 339 40" version="1.1" xmlns="http://www.w3.org/2000/svg" xmlns:xlink="http://www.w3.org/1999/xlink">
    <!-- Generator: Sketch 63.1 (92452) - https://sketch.com -->
    <title>Group</title>
    <desc>Created with Sketch.</desc>
    <g id="08.PLAYER" stroke="none" stroke-width="1" fill="none" fill-rule="evenodd">
        <g id="Player-App---Portrait" transform="translate(-56.000000, -56.000000)">
            <g id="Group" transform="translate(56.000000, 56.000000)">
                <g id="Group-2" transform="translate(58.547619, 8.000000)" fill="#181919" fill-rule="nonzero">
                    <path d="M8.74024759,23.5320352 C15.894574,23.5320352 20.8375632,18.5745998 20.8375632,12.1914967 L20.8375632,12.1266937 C20.8375632,5.74359057 15.894574,0.850958255 8.74024759,0.850958255 L0.837968867,0.850958255 L0.837968867,23.5320352 L8.74024759,23.5320352 Z M8.74024759,21.1667229 L3.40702244,21.1667229 L3.40702244,3.21627057 L8.74024759,3.21627057 C14.4962284,3.21627057 18.1709506,7.16925827 18.1709506,12.1914967 L18.1709506,12.2562998 C18.1709506,17.2785383 14.4962284,21.1667229 8.74024759,21.1667229 Z M28.2092579,23.5320352 L28.2092579,0.850958255 L25.6402043,0.850958255 L25.6402043,23.5320352 L28.2092579,23.5320352 Z M44.5888999,23.9208537 C48.4262204,23.9208537 51.6131477,22.3331783 53.7269259,20.4538891 L53.7269259,11.4138598 L44.3287426,11.4138598 L44.3287426,13.714369 L51.2554313,13.714369 L51.2554313,19.3522367 C49.6944874,20.6158968 47.2880321,21.6203444 44.6864589,21.6203444 C39.1581158,21.6203444 35.6785116,17.6025537 35.6785116,12.1914967 L35.6785116,12.1266937 C35.6785116,7.07205365 39.2881944,2.8274521 44.3287426,2.8274521 C47.5481895,2.8274521 49.4993694,3.89670288 51.2554313,5.41957519 L52.9139343,3.47548288 C50.6375577,1.5637921 48.2636221,0.462139793 44.4263016,0.462139793 C37.5971718,0.462139793 33.011899,5.97040134 33.011899,12.1914967 L33.011899,12.2562998 C33.011899,18.7366075 37.4345735,23.9208537 44.5888999,23.9208537 Z M61.4563369,23.5320352 L61.4563369,0.850958255 L58.8872834,0.850958255 L58.8872834,23.5320352 L61.4563369,23.5320352 Z M75.7547204,23.5320352 L75.7547204,3.21627057 L83.4293615,3.21627057 L83.4293615,0.850958255 L65.5110258,0.850958255 L65.5110258,3.21627057 L73.1856668,3.21627057 L73.1856668,23.5320352 L75.7547204,23.5320352 Z M85.1426344,23.5320352 L87.8417666,17.5377506 L100.231759,17.5377506 L102.898372,23.5320352 L105.662543,23.5320352 L95.28877,0.688950563 L92.8823148,0.688950563 L82.5085415,23.5320352 L85.1426344,23.5320352 Z M99.2236495,15.2372414 L88.8498762,15.2372414 L94.0530227,3.66989211 L99.2236495,15.2372414 Z M124.676278,23.5320352 L124.676278,21.1667229 L111.86353,21.1667229 L111.86353,0.850958255 L109.294476,0.850958255 L109.294476,23.5320352 L124.676278,23.5320352 Z M145.143129,23.8560506 C149.663362,23.8560506 152.915329,21.3287306 152.915329,17.440546 L152.915329,17.3757429 C152.915329,13.9087783 150.573913,12.0618906 145.500845,10.9602383 C140.492817,9.8909875 139.322109,8.69213058 139.322109,6.55362903 L139.322109,6.48882596 C139.322109,4.44752903 141.208249,2.8274521 144.167539,2.8274521 C146.508955,2.8274521 148.622733,3.57268749 150.736511,5.28996903 L152.232416,3.31347518 C149.92352,1.46658749 147.549584,0.52694287 144.232578,0.52694287 C139.907463,0.52694287 136.753055,3.15146749 136.753055,6.71563673 L136.753055,6.7804398 C136.753055,10.5066167 139.15951,12.1914967 144.395176,13.3255506 C149.175567,14.3299983 150.313756,15.5288552 150.313756,17.6349552 L150.313756,17.6997583 C150.313756,19.9354644 148.297536,21.5555414 145.240688,21.5555414 C142.08628,21.5555414 139.809904,20.4862906 137.435968,18.3477891 L135.842504,20.2270783 C138.574156,22.6571937 141.533446,23.8560506 145.143129,23.8560506 Z M160.091906,23.5320352 L160.091906,0.850958255 L157.522852,0.850958255 L157.522852,23.5320352 L160.091906,23.5320352 Z M176.471548,23.9208537 C180.308868,23.9208537 183.495795,22.3331783 185.609574,20.4538891 L185.609574,11.4138598 L176.21139,11.4138598 L176.21139,13.714369 L183.138079,13.714369 L183.138079,19.3522367 C181.577135,20.6158968 179.17068,21.6203444 176.569107,21.6203444 C171.040763,21.6203444 167.561159,17.6025537 167.561159,12.1914967 L167.561159,12.1266937 C167.561159,7.07205365 171.170842,2.8274521 176.21139,2.8274521 C179.430837,2.8274521 181.382017,3.89670288 183.138079,5.41957519 L184.796582,3.47548288 C182.520205,1.5637921 180.14627,0.462139793 176.308949,0.462139793 C169.47982,0.462139793 164.894547,5.97040134 164.894547,12.1914967 L164.894547,12.2562998 C164.894547,18.7366075 169.317221,23.9208537 176.471548,23.9208537 Z M193.046308,23.5320352 L193.046308,4.93355211 L207.745196,23.5320352 L209.793935,23.5320352 L209.793935,0.850958255 L207.289921,0.850958255 L207.289921,19.0282214 L192.948749,0.850958255 L190.542293,0.850958255 L190.542293,23.5320352 L193.046308,23.5320352 Z M216.059961,23.5320352 L218.759094,17.5377506 L231.149086,17.5377506 L233.815699,23.5320352 L236.57987,23.5320352 L226.206097,0.688950563 L223.799642,0.688950563 L213.425869,23.5320352 L216.059961,23.5320352 Z M230.140977,15.2372414 L219.767203,15.2372414 L224.97035,3.66989211 L230.140977,15.2372414 Z M249.447389,23.9208537 C253.284709,23.9208537 256.471636,22.3331783 258.585415,20.4538891 L258.585415,11.4138598 L249.187231,11.4138598 L249.187231,13.714369 L256.11392,13.714369 L256.11392,19.3522367 C254.552976,20.6158968 252.146521,21.6203444 249.544948,21.6203444 C244.016604,21.6203444 240.537,17.6025537 240.537,12.1914967 L240.537,12.1266937 C240.537,7.07205365 244.146683,2.8274521 249.187231,2.8274521 C252.406678,2.8274521 254.357858,3.89670288 256.11392,5.41957519 L257.772423,3.47548288 C255.496046,1.5637921 253.122111,0.462139793 249.28479,0.462139793 C242.455661,0.462139793 237.870388,5.97040134 237.870388,12.1914967 L237.870388,12.2562998 C237.870388,18.7366075 242.293062,23.9208537 249.447389,23.9208537 Z M280.135683,23.5320352 L280.135683,21.1991244 L266.087188,21.1991244 L266.087188,13.2607475 L278.5097,13.2607475 L278.5097,10.9278367 L266.087188,10.9278367 L266.087188,3.18386903 L279.973085,3.18386903 L279.973085,0.850958255 L263.518134,0.850958255 L263.518134,23.5320352 L280.135683,23.5320352 Z" id="DIGITALSIGNAGE"></path>
                </g>
                <g id="logo-pms" transform="translate(0.547619, -0.000000)">
                    <polygon id="Path" points="0 0 40 0 40 40 0 40"></polygon>
                    <path d="M25.3083333,18.24 L21.7583333,14.6933333 L29.58,6.87 L33.13,10.42 L25.3083333,18.24 L25.3083333,18.24 Z M29.58,33.13 L21.7583333,25.3066667 L25.305,21.76 L33.1283333,29.5816667 L29.58,33.13 L29.58,33.13 Z M14.6933333,18.24 L6.87,10.42 L10.415,6.87 L18.2416667,14.6916667 L14.6916667,18.2416667 L14.6933333,18.24 Z M10.4166667,33.13 L6.87,29.5833333 L14.6933333,21.76 L18.24,25.3066667 L10.4183333,33.13 L10.4166667,33.13 Z M0,40 L40,40 L40,0 L0,0 L0,40 Z" id="Shape" fill-opacity="0.55" fill="#181919" fill-rule="nonzero"></path>
                </g>
            </g>
        </g>
    </g>
</svg>